<?xml version="1.0" encoding="utf-8"?>
<!-- Generator: Adobe Illustrator 21.1.0, SVG Export Plug-In . SVG Version: 6.00 Build 0)  -->
<svg version="1.1" id="Layer_1" xmlns="http://www.w3.org/2000/svg" xmlns:xlink="http://www.w3.org/1999/xlink" x="0px" y="0px"
	 viewBox="0 0 338.9 91.9" style="enable-background:new 0 0 338.9 91.9;" xml:space="preserve">
<style type="text/css">
	.st0{enable-background:new    ;}
	.st1{fill:#FFFFFF;}
	.st2{fill:#F2C612;}
</style>
<g class="st0">
	<path class="st1" d="M90.4,68.1v11.8h-5.7V47.9c3.8-0.2,6-0.2,6.6-0.2c5,0,8.7,0.8,11.1,2.3c2.3,1.5,3.5,4,3.5,7.3
		c0,7.3-4.3,11-13,11C92.4,68.3,91.5,68.2,90.4,68.1z M90.4,52.8v10.2c1,0.1,1.7,0.2,2.3,0.2c2.6,0,4.5-0.4,5.7-1.3
		c1.2-0.9,1.8-2.3,1.8-4.2c0-3.3-2.7-5-8-5C91.6,52.7,91,52.8,90.4,52.8z"/>
	<path class="st1" d="M125.8,79.9V65.5c0-1.4-0.5-2.6-1.4-3.5c-0.9-0.9-2.1-1.3-3.5-1.3c-0.9,0-1.8,0.2-2.7,0.7s-1.6,1-2,1.7v16.8
		h-5.5V47.8l5.5-1.3V58c1.4-1.3,3.4-1.9,5.8-1.9c2.9,0,5.2,0.8,6.8,2.4s2.4,3.9,2.4,7v14.4H125.8z"/>
	<path class="st1" d="M138.6,79.9V61h-3v-4.5h8.5v23.4H138.6z M141.4,47.5c0.9,0,1.6,0.3,2.2,0.9c0.6,0.6,0.9,1.4,0.9,2.2
		c0,0.9-0.3,1.6-0.9,2.2c-0.6,0.6-1.4,0.9-2.2,0.9c-0.9,0-1.6-0.3-2.2-0.9c-0.6-0.6-0.9-1.4-0.9-2.2c0-0.9,0.3-1.6,0.9-2.2
		C139.8,47.8,140.5,47.5,141.4,47.5z"/>
	<path class="st1" d="M151.4,47.8l5.5-1.3v26.3c0,2.9,0.9,4.6,2.6,5.1c-0.8,1.6-2.3,2.4-4.3,2.4c-2.5,0-3.7-1.7-3.7-5.1V47.8z"/>
	<path class="st1" d="M176.6,77.5c-0.5,0.8-1.4,1.5-2.6,2s-2.5,0.8-3.8,0.8c-2.5,0-4.5-0.6-5.9-1.9s-2.2-3-2.2-5.4
		c0-2.7,1-4.8,3-6.3s4.9-2.3,8.6-2.3c0.6,0,1.4,0.1,2.3,0.3c0-2.7-1.7-4.1-5.2-4.1c-2.1,0-3.8,0.3-5.1,1l-1.2-4.2
		c1.9-0.9,4.1-1.4,6.7-1.4c3.6,0,6.2,0.8,7.8,2.4s2.5,4.7,2.5,9.2v5c0,3.1,0.6,5.1,1.9,5.9c-0.5,0.8-1,1.3-1.5,1.5
		c-0.6,0.2-1.2,0.3-1.9,0.3c-0.8,0-1.5-0.3-2.1-0.9C177.3,78.8,176.9,78.2,176.6,77.5z M176.1,68.9c-0.9-0.2-1.6-0.3-2.1-0.3
		c-4.3,0-6.5,1.4-6.5,4.2c0,2.1,1.2,3.1,3.6,3.1c3.3,0,4.9-1.6,4.9-4.9V68.9z"/>
	<path class="st1" d="M202.5,79.9v-1.4c-0.5,0.5-1.2,0.9-2.3,1.3c-1.1,0.4-2.2,0.6-3.3,0.6c-3.3,0-5.8-1-7.7-3.1s-2.8-4.9-2.8-8.6
		c0-3.7,1.1-6.7,3.2-9c2.1-2.3,4.8-3.5,8.1-3.5c1.8,0,3.4,0.4,4.8,1.1v-9.4l5.5-1.3v33.4H202.5z M202.5,62.1
		c-1.2-0.9-2.4-1.4-3.6-1.4c-2.2,0-3.9,0.7-5,2s-1.8,3.2-1.8,5.7c0,4.9,2.3,7.3,7,7.3c0.5,0,1.2-0.2,1.9-0.5
		c0.8-0.3,1.3-0.6,1.5-0.9V62.1z"/>
	<path class="st1" d="M234.2,69.9h-16.7c0.1,1.9,0.7,3.3,1.9,4.3s2.8,1.5,4.8,1.5c2.5,0,4.4-0.6,5.7-1.9L232,78
		c-1.9,1.6-4.8,2.3-8.6,2.3c-3.6,0-6.4-1-8.5-3.1c-2.1-2.1-3.1-5-3.1-8.7c0-3.7,1.1-6.7,3.4-8.9c2.3-2.3,5-3.4,8.2-3.4
		c3.4,0,6.1,1,8.2,3c2,2,3.1,4.6,3.1,7.7C234.7,67.5,234.5,68.5,234.2,69.9z M217.7,65.8h11.5c-0.4-3.4-2.3-5.1-5.7-5.1
		C220.4,60.6,218.5,62.3,217.7,65.8z"/>
	<path class="st1" d="M240,47.8l5.5-1.3v26.3c0,2.9,0.9,4.6,2.6,5.1c-0.8,1.6-2.3,2.4-4.3,2.4c-2.5,0-3.7-1.7-3.7-5.1V47.8z"/>
	<path class="st1" d="M257.2,79.3V89h-5.5V56.5h5.5v1.6c1.4-1.3,3-2,5-2c7.4,0,11.2,4.1,11.2,12.3c0,3.8-1,6.8-3.1,8.8
		c-2.1,2.1-4.9,3.1-8.4,3.1C260.2,80.3,258.6,80,257.2,79.3z M257.2,62.2v12.3c1,0.8,2.1,1.2,3.5,1.2c2.5,0,4.3-0.6,5.4-1.8
		c1.1-1.2,1.6-3.1,1.6-5.7c0-2.8-0.5-4.7-1.6-5.8c-1.1-1.1-2.9-1.7-5.4-1.7C259.4,60.7,258.2,61.2,257.2,62.2z"/>
	<path class="st1" d="M293.3,79.9V65.5c0-1.4-0.5-2.6-1.4-3.5c-0.9-0.9-2.1-1.3-3.5-1.3c-0.9,0-1.8,0.2-2.7,0.7s-1.6,1-2,1.7v16.8
		h-5.5V47.8l5.5-1.3V58c1.4-1.3,3.4-1.9,5.8-1.9c2.9,0,5.2,0.8,6.8,2.4s2.4,3.9,2.4,7v14.4H293.3z"/>
	<path class="st1" d="M306.2,79.9V61h-3v-4.5h8.5v23.4H306.2z M309,47.5c0.9,0,1.6,0.3,2.2,0.9c0.6,0.6,0.9,1.4,0.9,2.2
		c0,0.9-0.3,1.6-0.9,2.2c-0.6,0.6-1.4,0.9-2.2,0.9c-0.9,0-1.6-0.3-2.2-0.9c-0.6-0.6-0.9-1.4-0.9-2.2c0-0.9,0.3-1.6,0.9-2.2
		C307.3,47.8,308.1,47.5,309,47.5z"/>
	<path class="st1" d="M331,77.5c-0.5,0.8-1.4,1.5-2.6,2s-2.5,0.8-3.8,0.8c-2.5,0-4.5-0.6-5.9-1.9s-2.2-3-2.2-5.4c0-2.7,1-4.8,3-6.3
		s4.9-2.3,8.6-2.3c0.6,0,1.4,0.1,2.3,0.3c0-2.7-1.7-4.1-5.2-4.1c-2.1,0-3.8,0.3-5.1,1l-1.2-4.2c1.9-0.9,4.1-1.4,6.7-1.4
		c3.6,0,6.2,0.8,7.8,2.4s2.5,4.7,2.5,9.2v5c0,3.1,0.6,5.1,1.9,5.9c-0.5,0.8-1,1.3-1.5,1.5c-0.6,0.2-1.2,0.3-1.9,0.3
		c-0.8,0-1.5-0.3-2.1-0.9C331.7,78.8,331.2,78.2,331,77.5z M330.5,68.9c-0.9-0.2-1.6-0.3-2.1-0.3c-4.3,0-6.5,1.4-6.5,4.2
		c0,2.1,1.2,3.1,3.6,3.1c3.3,0,4.9-1.6,4.9-4.9V68.9z"/>
</g>
<g class="st0">
	<path class="st1" d="M98.3,15.8l-1.4,2.8c-0.7-0.7-1.9-1.1-3.6-1.1c-1.6,0-2.9,0.7-3.9,2c-1,1.3-1.5,3-1.5,5c0,2,0.5,3.6,1.4,4.8
		c0.9,1.2,2.2,1.8,3.7,1.8c1.8,0,3.2-0.6,4.2-1.9l1.6,2.7c-1.4,1.4-3.4,2.2-6,2.2c-2.6,0-4.7-0.9-6.1-2.6c-1.5-1.7-2.2-4.1-2.2-7.1
		c0-2.8,0.8-5.1,2.4-7c1.6-1.9,3.7-2.8,6.2-2.8C95.3,14.4,97,14.9,98.3,15.8z"/>
	<path class="st1" d="M102.2,33.6V22.5h-1.8v-2.6h5v13.8H102.2z M103.8,14.5c0.5,0,1,0.2,1.3,0.5c0.4,0.4,0.5,0.8,0.5,1.3
		c0,0.5-0.2,1-0.5,1.3c-0.4,0.4-0.8,0.5-1.3,0.5c-0.5,0-1-0.2-1.3-0.5c-0.4-0.4-0.5-0.8-0.5-1.3c0-0.5,0.2-1,0.5-1.3
		C102.9,14.7,103.3,14.5,103.8,14.5z"/>
	<path class="st1" d="M109.6,22.4H108v-2.6h1.6V17l3.2-1.2v4h3.8v2.6h-3.8v6c0,1,0.2,1.7,0.5,2.1c0.3,0.4,0.8,0.6,1.6,0.6
		c0.8,0,1.5-0.2,2.2-0.6v3c-0.7,0.3-1.8,0.4-3.2,0.4c-1.4,0-2.4-0.4-3.2-1.2c-0.7-0.8-1.1-1.9-1.1-3.3V22.4z"/>
	<path class="st1" d="M125.7,35.8c-0.3,0.9-1.1,1.7-2.2,2.3c-1.1,0.6-2.4,0.9-3.9,0.9v-2.8c2.5,0,3.7-0.6,3.7-1.9
		c0-0.8-0.3-2.1-1-3.8l-4.3-10.7h3.3l3.8,9.5l3.4-9.5h3.3L125.7,35.8z"/>
</g>
<g class="st0">
	<path class="st1" d="M137,26.7c0-2.1,0.6-3.8,1.8-5.1c1.2-1.3,2.8-2,4.8-2c2.1,0,3.7,0.6,4.9,1.9s1.7,3,1.7,5.2
		c0,2.2-0.6,3.9-1.8,5.2c-1.2,1.3-2.8,1.9-4.8,1.9c-2.1,0-3.7-0.7-4.9-2C137.6,30.6,137,28.8,137,26.7z M140.3,26.7
		c0,3,1.1,4.5,3.3,4.5c1,0,1.8-0.4,2.4-1.2s0.9-1.9,0.9-3.4c0-3-1.1-4.5-3.3-4.5c-1,0-1.8,0.4-2.4,1.2
		C140.6,24.2,140.3,25.3,140.3,26.7z"/>
	<path class="st1" d="M160.5,17.1c-0.7-0.2-1.2-0.3-1.6-0.3c-0.6,0-1.1,0.3-1.5,0.8c-0.4,0.5-0.6,1.2-0.6,1.9c0,0.1,0,0.2,0,0.3h2.9
		v2.6h-2.8v11.1h-3.2V22.5h-2v-2.6h2c0.1-1.7,0.6-3,1.5-4.1c0.9-1,2.1-1.6,3.6-1.6c0.8,0,1.7,0.2,2.8,0.5L160.5,17.1z"/>
</g>
<path class="st2" d="M29.1,69.9c0.2,2.1,0.6,5.3,0.9,6.6c13,3.4,21.9,1.7,24,0.3c1.5-1.1,2.6-1.6,0.5-5.9
	C49.8,72.8,40,72.7,29.1,69.9"/>
<path class="st2" d="M23.9,75.8c-1.5-0.5-3,0.3-3.5,1.8c-0.4,1.1,0,2.3,0.9,3l-0.6,1.3c0,0,0.4,0.4,1.1,0.6s1.1,0.1,1.1,0.1l0.2-1.4
	c1.2,0,2.2-0.7,2.6-1.9C26.1,77.9,25.3,76.3,23.9,75.8"/>
<path class="st2" d="M71,16.9c0.7-2.4-0.9-2.8-1.4-2.9L53.8,9.5c-1.2-0.3-0.8-3.1-1.9-3.4c0,0-11.3-3.2-12.4-3.5s-2.2,2.3-3.4,1.9
	l-16-4.4C19.6,0,18-0.5,17.4,1.9l-3.6,12.9c0,0.2-0.2,0.2-0.3,0.2l-1.1-0.3c-0.4-0.1-0.7,0-1,0.6s-0.7,1.5-1.1,2.9
	c-0.5,1.6-0.6,3-0.7,3.5c0,0.5,0,0.8,0.6,1l10.1,2.8c0.6,0.2,1.4,0.2,1.9-0.9c1.1-2.3,3.8-6.7,4.7-7.2c1.2-0.7,8.4,0.5,8.4,0.5
	s-0.2,0.4-0.5,1.5s0.4,3.9-0.3,4.3c-3.5,2-9.9-1-12,4.9C17.2,43.7,13.3,50.1,7.4,54c2.8,3.3,9.3,6.7,18.8,9.6
	c-0.1-0.3-0.1-0.6-0.1-0.9c0-0.5,0-1.2-0.2-3.4c-0.2-2.1-0.4-3.1-0.4-4.1c0-1.1,0.1-2,0.6-3.8c0.1-0.2,0.1-0.5,0.2-0.7
	c0.7-2.4,3-9.1,3.9-11c0.2-0.3,0.4-0.3,0.4-0.3c0.1,0,0.3,0.1,0.2,0.4c-0.2,2.1-1.9,8.9-2.6,11.4c-0.1,0.2-0.1,0.5-0.2,0.7
	c-0.5,1.7-0.4,2.5-0.4,3.4s0.3,2,0.5,4.1c0.2,2.2,0.2,3.1,0.2,3.6c0,0.4,0,0.6,0.3,1.3c0.1,0,0.1,0,0.2,0c10.8,3,19.1,3.7,23.5,2.2
	c-3-6.4-3-14,0.2-29.6c1.3-6.2-5.7-6.8-7.7-10.4c-0.4-0.6,1.6-2.7,2-3.8c0.3-1.1,0.4-1.6,0.4-1.6s7,2.8,7.7,4
	c0.5,0.9,0.6,6.1,0.3,8.6c-0.1,1.2,0.6,1.6,1.2,1.8l10.1,2.8c0.6,0.2,0.8-0.1,1-0.6s0.8-1.7,1.3-3.3c0.4-1.4,0.5-2.4,0.5-3.1
	c0-0.6-0.2-0.9-0.6-1L67.6,30c-0.2,0-0.3-0.2-0.2-0.4"/>
<path class="st2" d="M3.2,56.6c-4.1,2.8-3.6,4.2-2.4,5.7c2.8,3.6,10.3,9,24,12.8c0,0,2.7,0.7,3.1,0.8c-0.2-1.1-0.7-4.6-0.9-6.6
	C15.5,66.1,6.4,60.9,3.2,56.6"/>
</svg>
